# xmcd CD database file
#
# Track frame offsets:
#	150
#	14122
#	23303
#	33348
#	45246
#	57750
#	69522
#	78358
#	92811
#	100645
#	109534
#	130847
#	145946
#
# Disc length: 2147 seconds
#
# Revision: 0
# Processed by: cddbd v1.4PL0 Copyright (c) Steve Scherf et al.
# Submitted via: Feurio! 1.65 - http://www.feurio.com
#
DISCID=9808610d
DTITLE=Johnny Cash - Understand Your Man
DYEAR=2002
DGENRE=Country
TTITLE0=Orange Blossom Special
TTITLE1=A Certain Kinda Hurtin'
TTITLE2=Time And Time Again
TTITLE3=Still In Town
TTITLE4=Understand Your Man
TTITLE5=I'd Still Be There
TTITLE6=I Want To Go Home
TTITLE7=Sing A Traveling Song (with June Carter)
TTITLE8=I Got Stripes
TTITLE9=A Little At A Time (with Gordon Terry)
TTITLE10=San Quentin
TTITLE11=A Boy Named Sue
TTITLE12=He Turned The Water Into Wine
EXTD=From the Album "Understand Your Man" on CBS Special Products LE10490 (c) 
EXTD=1971
EXTT0=From the Album "Understand Your Man" on CBS Special Products LE10490 (c) 
EXTT0=1971
EXTT1=From the Album "Understand Your Man" on CBS Special Products LE10490 (c) 
EXTT1=1971
EXTT2=From the Album "Understand Your Man" on CBS Special Products LE10490 (c) 
EXTT2=1971
EXTT3=From the Album "Understand Your Man" on CBS Special Products LE10490 (c) 
EXTT3=1971
EXTT4=From the Album "Understand Your Man" on CBS Special Products LE10490 (c) 
EXTT4=1971
EXTT5=From the Album "Understand Your Man" on CBS Special Products LE10490 (c) 
EXTT5=1971
EXTT6=From the Album "Understand Your Man" on CBS Special Products LE10490 (c) 
EXTT6=1971
EXTT7=From the Album "Understand Your Man" on CBS Special Products LE10490 (c) 
EXTT7=1971
EXTT8=From the Album "Understand Your Man" on CBS Special Products LE10490 (c) 
EXTT8=1971
EXTT9=From the Album "Understand Your Man" on CBS Special Products LE10490 (c) 
EXTT9=1971
EXTT10=From the Album "Understand Your Man" on CBS Special Products LE10490 
EXTT10=(c) 1971
EXTT11=From the Album "Understand Your Man" on CBS Special Products LE10490 
EXTT11=(c) 1971
EXTT12=From the Album "Understand Your Man" on CBS Special Products LE10490 
EXTT12=(c) 1971
PLAYORDER=
